<svg height='100px' width='100px'  fill="#000000" xmlns="http://www.w3.org/2000/svg" viewBox="0 0 100 100" x="0px" y="0px"><title>BS-Warning-Rounded-Square</title><path d="M87,13V87H13V13H87m0-8H13a8,8,0,0,0-8,8V87a8,8,0,0,0,8,8H87a8,8,0,0,0,8-8V13a8,8,0,0,0-8-8Z"></path><path d="M57.28,33.76a14.92,14.92,0,0,1-.39,3.3q-.39,1.71-1.52,5.21-1.62,4.95-2.28,7.89a34.69,34.69,0,0,0-.79,5.78,3.65,3.65,0,0,1-.55,2,1.84,1.84,0,0,1-1.54.6,1.7,1.7,0,0,1-1.36-.51,2.83,2.83,0,0,1-.51-1.68Q48.13,54,48,53.07t-.67-3q-.85-3.32-2.19-7.14-1.59-4.49-2-6.15a15.3,15.3,0,0,1-.41-3.64,8.62,8.62,0,0,1,1.94-5.58A6.61,6.61,0,0,1,50.14,25a6.32,6.32,0,0,1,5.12,2.47A9.63,9.63,0,0,1,57.28,33.76ZM50,61.26a6.87,6.87,0,1,0,6.87,6.87A6.87,6.87,0,0,0,50,61.26Z"></path></svg>