<svg id="Layer_1" data-name="Layer 1" xmlns="http://www.w3.org/2000/svg" viewBox="0 0 113.76 113.76"><defs><style>.cls-1{fill:#fff200;}.cls-2{fill:none;stroke:#000;}</style></defs><title>gear</title><path class="cls-1" d="M351.54,395.27l10.68-4.68-.29-2.21-11.53-1.76-.83-3.11,9.1-7.29-.85-2.06-11.59,1.28-1.61-2.78,6.91-9.4-1.36-1.77-10.86,4.24L337,363.46l4.24-10.86-1.77-1.36-9.4,6.9-2.78-1.61L328.6,345l-2.06-.86-7.29,9.1-3.1-.83-1.76-11.52-2.22-.3-4.68,10.68h-3.22l-4.68-10.68-2.21.3-1.76,11.52-3.11.83-7.29-9.1-2.06.86,1.28,11.58-2.78,1.61-9.4-6.9-1.77,1.36,4.24,10.86-2.27,2.27-10.86-4.24-1.36,1.77,6.9,9.4-1.61,2.78L254,374.16l-.86,2.06,9.1,7.29-.83,3.11-11.52,1.76-.3,2.21,10.68,4.68v3.22l-10.68,4.68.3,2.22,11.52,1.76.83,3.1-9.1,7.29.86,2.06,11.58-1.28,1.61,2.78-6.9,9.4,1.36,1.77L272.46,428l2.27,2.28-4.24,10.86,1.77,1.35,9.4-6.9,2.78,1.61-1.28,11.59,2.06.85,7.29-9.1,3.11.83,1.76,11.53,2.21.29,4.68-10.68h3.22l4.68,10.68,2.22-.29,1.76-11.53,3.1-.83,7.29,9.1,2.06-.85-1.28-11.59,2.78-1.61,9.4,6.9,1.77-1.35L337,430.31l2.28-2.28,10.86,4.24,1.36-1.77-6.91-9.4,1.61-2.78,11.59,1.28.85-2.06-9.1-7.29.83-3.1,11.53-1.76.29-2.22-10.68-4.68v-3.22Zm-30.36,1.61a15.3,15.3,0,1,1-15.3-15.3,15.3,15.3,0,0,1,15.3,15.3Z" transform="translate(-249 -340)"/><path class="cls-2" d="M351.54,395.27l10.68-4.68-.29-2.21-11.53-1.76-.83-3.11,9.1-7.29-.85-2.06-11.59,1.28-1.61-2.78,6.91-9.4-1.36-1.77-10.86,4.24L337,363.46l4.24-10.86-1.77-1.36-9.4,6.9-2.78-1.61L328.6,345l-2.06-.86-7.29,9.1-3.1-.83-1.76-11.52-2.22-.3-4.68,10.68h-3.22l-4.68-10.68-2.21.3-1.76,11.52-3.11.83-7.29-9.1-2.06.86,1.28,11.58-2.78,1.61-9.4-6.9-1.77,1.36,4.24,10.86-2.27,2.27-10.86-4.24-1.36,1.77,6.9,9.4-1.61,2.78L254,374.16l-.86,2.06,9.1,7.29-.83,3.11-11.52,1.76-.3,2.21,10.68,4.68v3.22l-10.68,4.68.3,2.22,11.52,1.76.83,3.1-9.1,7.29.86,2.06,11.58-1.28,1.61,2.78-6.9,9.4,1.36,1.77L272.46,428l2.27,2.28-4.24,10.86,1.77,1.35,9.4-6.9,2.78,1.61-1.28,11.59,2.06.85,7.29-9.1,3.11.83,1.76,11.53,2.21.29,4.68-10.68h3.22l4.68,10.68,2.22-.29,1.76-11.53,3.1-.83,7.29,9.1,2.06-.85-1.28-11.59,2.78-1.61,9.4,6.9,1.77-1.35L337,430.31l2.28-2.28,10.86,4.24,1.36-1.77-6.91-9.4,1.61-2.78,11.59,1.28.85-2.06-9.1-7.29.83-3.1,11.53-1.76.29-2.22-10.68-4.68v-3.22Zm-30.36,1.61a15.3,15.3,0,1,1-15.3-15.3,15.3,15.3,0,0,1,15.3,15.3Z" transform="translate(-249 -340)"/></svg>